<?xml version="1.0" encoding="utf-8"?>
<!-- Generator: Adobe Illustrator 27.5.0, SVG Export Plug-In . SVG Version: 6.00 Build 0)  -->
<svg version="1.1" xmlns="http://www.w3.org/2000/svg" xmlns:xlink="http://www.w3.org/1999/xlink" x="0px" y="0px"
	 viewBox="0 0 500 500" style="enable-background:new 0 0 500 500;" xml:space="preserve">
<g id="BACKGROUND">
	<rect style="fill:#FFFFFF;" width="500" height="500"/>
</g>
<g id="OBJECTS">
	<g>
		<g>
			<path style="fill:#DEE4E4;" d="M355.124,257.82c-1.431,0.705-2.228,0.136-2.717-1.204c0.889-1.347,0.762-1.808-0.5-2.022
				c-0.965-0.164-2.036,0.265-2.896-0.506c0.25-0.19,0.473-0.482,0.748-0.545c0.937-0.217,1.475-0.748,1.538-1.71
				c0.077-1.168,0.11-2.312,0.473-3.474c0.209-0.67-0.318-1.57-0.601-2.724c-1.163,0.791-1.979,0.017-2.909-0.279
				c-0.334-0.007-0.667-0.014-1.001-0.022c-0.006-0.335-0.011-0.67-0.016-1.004c-0.003-0.664,0.039-1.332-0.018-1.992
				c-0.185-2.154-0.504-2.465-3.054-3.126c-0.846-0.006-1.652-0.093-2.04-1.018c0.817-0.124,1.982,0.048,2.387-0.427
				c1.378-1.615,3.12-3.164,2.738-5.666c0.346-0.352,0.691-0.703,1.037-1.055c0.691,0.348,0.938,0.892,0.69,1.631
				c-0.194,0.576-0.87,1.111-0.198,1.756c0.383,0.367,1.153-0.446,1.474-1.587c0.181-0.644,0.367-1.291,0.472-1.949
				c0.047-0.293-0.098-0.617-0.195-1.134c-0.486-0.211-1.06-0.543-1.678-0.705c-0.788-0.207-1.695-0.036-2.181-0.667
				c-0.607-2.062-1.168-3.97-1.732-5.889c-1.467,0.126-2.711,0.43-3.335,1.825c1.445,2.609,1.445,2.609,1.525,5.647
				c-0.886,0.425-1.004,1.22-0.997,2.074c-0.216,0.206-0.505,0.628-0.636,0.584c-1.43-0.483-1.99,0.387-2.44,1.473
				c-1.651-0.671-0.53-2.504-1.502-3.54c-0.928,0.207-1.885,0.421-2.984,0.667c0.329,0.614,0.603,1.125,0.88,1.642
				c-0.826,1.442-2.229,1.233-3.556,1.24c0.133-1.679-0.322-3.408,0.481-5.029c0.829-1.672-0.147-2.512-1.502-3.159
				c-0.328-0.002-0.655-0.023-0.98-0.064c0.657-1.357,1.314-2.714,1.971-4.071c0.342-0.332,0.685-0.665,1.026-0.997
				c1.42,1.389,3.151,2.554,3.253,4.85c0.023,0.509,0.391,1.019,0.998,0.895c0.456-0.093,1.053-0.327,1.255-0.686
				c0.822-1.462,1.517-2.995,2.289-4.566c0.207-0.045,0.574-0.252,0.834-0.16c1.174,0.414,2.012,0.094,2.427-1.058
				c0.424-1.175-0.137-2.537-1.263-2.974c-1.297-0.504-2.64-0.815-3.636,0.629c-0.303,0.505-0.794,0.686-1.155,0.235
				c-0.39-0.487-0.67-1.119-0.818-1.732c-0.34-1.409-1.101-1.762-2.491-0.618c-0.504,0.415-1.067,0.758-1.603,1.134
				c-0.948,0.318-1.072,1.104-1.102,1.943c-0.331,0.065-0.665,0.096-1.003,0.095c0.032-1.492-0.621-2.538-2.018-3.1
				c-0.69,0.007-1.38,0.013-2.07,0.02c-1.914,0.483-1.916,0.484-1.519,2.058c0.078,0.308,0.203,0.607,0.248,0.919
				c0.016,0.114-0.136,0.359-0.215,0.36c-0.267,0.004-0.589,0.005-0.796-0.133c-1.117-0.75-0.339-2.655-1.899-3.157
				c-1.671-0.011-3.342-0.022-5.013-0.033c-0.68-0.002-1.361-0.005-2.041-0.007c-0.009,0.68-0.018,1.361-0.026,2.041
				c0.013,0.338,0.011,0.676-0.004,1.014c0.008,0.344,0.016,0.687,0.024,1.031c1.737,1.279,1.854,1.35,0.956,3.014
				c-0.781,1.446-0.958,2.73,0.019,4.091c-1.618-0.035-3.236-0.069-4.854-0.103c0.282-0.964,0.564-1.929,0.846-2.893
				c1.3-1.518,1.3-1.518,0.063-3.099c-0.069-0.828-0.167-1.655-0.196-2.485c-0.025-0.719-0.257-1.273-0.931-1.592
				c-0.348-0.006-0.696-0.012-1.045-0.017c-0.725,0.051-1.449,0.102-2.174,0.152c-1.593-0.382-3.185-0.165-4.777,0.009
				c-0.834,0.006-1.789-0.244-2.475,0.078c-1.085,0.51-1.967,0.083-2.931-0.112c0.073,0.816,0.014,1.572-0.888,1.942
				c-0.456-0.84-1.219-1.006-2.083-0.95c-0.34-0.061-0.679-0.055-1.016,0.02c-0.558,0.065-0.82,0.451-0.999,0.925l-0.011,0.011
				c-0.334,0.014-0.665-0.009-0.994-0.072c-0.378-0.607-0.909-0.969-1.64-0.938c-0.833,0.035-1.665,0.106-2.498,0.161
				c-0.317-0.09-0.636-0.1-0.958-0.032c-0.719,0.005-1.438,0.009-2.157,0.013c-3.067,0.025-6.134,0.049-9.201,0.074
				c-7.128-0.01-14.255-0.02-21.382-0.029c-2.754-0.187-5.538,0.397-8.273-0.318c-2.821,0.068-5.641,0.132-8.462,0.205
				c-3.315,0.085-6.636,0.113-9.899,0.827c-0.326,0.017-0.653,0.033-0.979,0.05c-0.669-0.042-1.338-0.126-2.006-0.121
				c-7.913,0.061-15.826,0.153-23.739,0.199c-4.035,0.023-8.07-0.028-12.106-0.045c-0.344-0.028-0.687-0.056-1.031-0.084
				c-6.172-0.999-12.316-2.264-18.514-2.978c-4.517-0.52-9.144-0.083-13.722-0.068c-0.339,0.001-0.679,0.027-1.016,0.066
				c-1.216,0.141-2.497,0.535-3.139,1.477c-0.908,1.334-2.126,2.743-1.4,4.639c-0.488,1.425-0.866,2.847-0.873,4.395
				c-0.005,1.141-0.28,2.326-0.665,3.41c-0.666,1.872-1.76,3.6-1.803,5.671c-1.381,1.754-1.458,4.056-2.494,5.965
				c-0.295,0.543-0.233,1.28-0.335,1.928c-1.224,1.924-1.691,4.083-1.965,6.304c-0.688,1.551-1.332,3.123-2.073,4.647
				c-1.028,2.116-1.154,4.24-0.273,6.422c-0.803,2.512-1.61,5.023-2.402,7.538c-0.099,0.314-0.195,0.658-0.168,0.978
				c0.223,2.644-0.275,5.349,0.664,7.932l0,0.004c-0.885,0.956-0.882,0.996,0.138,2.161c-0.591,4.67,2.31,7.375,5.561,9.883
				c3.169,0.973,6.209,2.474,9.645,2.36c1.151,1.145,2.656,1.02,4.093,1.141c-0.003-0.009-0.008-0.016-0.012-0.025
				c0.247,0.21,0.473,0.542,0.748,0.588c3.135,0.528,6.278,1.009,9.418,1.504l0.06-0.001c0.631,0.689,1.508,0.637,2.321,0.758
				c2.489,0.371,5.025,0.545,7.46,1.137c3.138,0.763,6.296,0.968,9.491,1.016c1.51,0.022,3.043-0.097,4.526,0.12
				c3.691,0.538,7.357,0.209,11.032-0.06c3.089-0.242,6.211-0.211,9.227-1.083c1.992-0.064,3.989-0.052,5.973-0.216
				c1.488-0.123,2.955-0.487,4.435-0.719c3.12-0.489,6.244-0.949,9.36-1.46c0.287-0.047,0.529-0.372,0.792-0.567l-0.185-0.234
				l0.185,0.233c0.343,0.111,0.639,0.037,0.889-0.223c0.507,0.031,1.037,0.171,1.519,0.076c3.316-0.652,6.626-1.33,9.927-2.052
				c1.317-0.288,2.605-0.711,3.906-1.072c1.803-0.266,3.614-0.792,5.408-0.739c2.736,0.082,5.293-0.525,7.861-1.262
				c1.495,0.03,3.045,0.331,4.294-0.863c2.954-0.077,5.908-0.155,8.862-0.232c0.917,0.103,1.785,0.096,2.168-0.978
				c1.841,0.011,3.682,0.025,5.524,0.03c0.729,0.001,1.267-0.369,1.7-0.923c0.322-0.052,0.645-0.081,0.971-0.086
				c0.863-0.043,1.625-0.197,2.073-1.103c0.455-0.92,1.027-1.717,2.316-1.436c0.793,0.172,1.278-0.466,1.462-1.086
				c0.232-0.784,0.222-1.64,0.316-2.465c-0.681,0.006-1.363,0.012-2.044,0.018c0.681-0.006,1.363-0.012,2.044-0.019
				c0.318-0.029,0.636-0.062,0.954-0.099c0.362,0.024,0.724,0.048,1.087,0.072c0.748,0.204,1.529,0.331,2.236,0.631
				c0.867,0.368,1.534,0.115,2.111-0.481c0.319-0.33,0.52-0.773,0.775-1.166c0.741-0.53,0.741-0.53-0.012-1.038
				c-0.333-0.01-0.667-0.017-1.001-0.021c-0.004-0.325-0.005-0.651-0.004-0.977c0.333-0.01,0.665-0.019,0.998-0.026
				c0.762-0.501,0.762-0.501,0.014-1.026c-0.007-0.336-0.008-0.672-0.003-1.008c0.344-0.272,0.689-0.544,1.033-0.815
				c0.678-0.069,1.356-0.137,2.035-0.206c0.733-0.202,1.498-0.328,2.19-0.625c0.868-0.373,1.454-0.185,1.89,0.612
				c1.106-0.082,2.371,0.33,3.084-0.986c1.029-0.023,2.058-0.047,3.088-0.07c0.65-0.018,1.299-0.037,1.949-0.055
				c1.171-0.882,1.172-0.936,0.028-1.91l-0.014,0.003c0.394-1.003,1.203-1.847,1.154-3.02c0.634-0.042,1.269-0.085,1.903-0.127
				c0.837,0.092,1.853-0.086,2.479,0.327c1.718,1.135,2.823-0.08,4.087-0.777c0.871,0.647,1.214,1.612,1.667,2.504
				c-1.23,1.379-1.168,1.619,0.533,2.026c0.15,0.036,0.314,0.018,0.471,0.025c0.349,0.007,0.698,0.013,1.046,0.019
				c1.737-0.308,1.737-0.308,2.022-2.025c-0.673-1.368-1.346-2.735-2.019-4.103l-0.055-0.053c0.973-0.288,1.065-1.105,1.158-1.923
				c0.644-0.051,1.288-0.103,1.933-0.154c0.351,0.024,0.701,0.048,1.052,0.072l0.007,0.003c-0.217,0.452-0.477,0.888-0.642,1.358
				c-0.331,0.945,0.291,1.857,1.122,1.653c1.599-0.393,3.311-0.627,4.509-1.876c0.991-1.033,1.603-0.673,2.431,0.185
				c0.592,0.613,1.289,0.437,1.583-0.27c0.314-0.756,0.356-1.65,1.214-2.083c0.257,0.198,0.574,0.352,0.758,0.604
				c0.481,0.659,0.864,1.431,1.854,1.372c1.343-0.08,1.363-1.176,1.617-2.111c0.082-0.305,0.305-0.573,0.476-0.851
				c0.374-0.608,1.155-0.748,1.669-0.203c0.667,0.707,1.24,1.502,1.853,2.259c0.643,1.414,1.888,0.968,2.989,0.966
				c1.581-0.574,2.621-2.083,4.404-2.399c0.845-0.15,0.977-2.437,0.252-3.155C356.467,257.667,355.774,257.499,355.124,257.82z
				 M201.053,225.91c0.162-0.002,0.325,0.004,0.486-0.008C201.378,225.915,201.215,225.908,201.053,225.91l-0.078,0.07
				L201.053,225.91z M306.179,231.349c-0.016-0.189-0.053-0.368-0.117-0.535C306.126,230.981,306.163,231.16,306.179,231.349z
				 M195.409,255.091c0.108,0.239,0.217,0.477,0.325,0.717c-0.107,0.098-0.212,0.195-0.317,0.293
				c0.105-0.098,0.21-0.195,0.316-0.293C195.626,255.569,195.517,255.33,195.409,255.091z M203.091,238.185
				c-0.402-0.157-0.774-0.355-1.078-0.621C202.318,237.83,202.689,238.028,203.091,238.185
				C203.091,238.185,203.091,238.185,203.091,238.185z M194.881,262.711L194.881,262.711c-0.6-0.278-1.2-0.555-1.789-0.828
				C193.681,262.155,194.281,262.433,194.881,262.711z M217.395,262.732c0-0.341,0-0.682,0-1.022l0,0
				C217.395,262.05,217.395,262.391,217.395,262.732L217.395,262.732z M235.805,233.09c-0.031-0.318-0.056-0.657-0.14-0.962
				C235.749,232.433,235.774,232.772,235.805,233.09C235.805,233.09,235.805,233.09,235.805,233.09z M189.832,251.503
				L189.832,251.503c0.602-0.567,1.152-1.203,1.77-1.748C190.983,250.3,190.434,250.936,189.832,251.503z M266.477,250.457
				c-0.006-0.336-0.01-0.672-0.014-1.008C266.466,249.786,266.471,250.122,266.477,250.457L266.477,250.457z M269.542,250.467
				c-0.69,0.006-1.381,0.013-2.071,0.019C268.16,250.48,268.851,250.474,269.542,250.467L269.542,250.467z M306.452,257.667
				L306.452,257.667c-0.35,0.295-0.7,0.59-1.05,0.885C305.752,258.257,306.102,257.962,306.452,257.667z M318.592,249.437
				L318.592,249.437c0.341-0.35,0.681-0.701,1.022-1.051c0.691-0.335,1.383-0.669,2.074-1.004c-0.691,0.335-1.383,0.669-2.074,1.004
				C319.273,248.736,318.933,249.087,318.592,249.437z M329.882,250.441C329.882,250.441,329.882,250.441,329.882,250.441
				c0.318,0.016,0.635,0.049,0.949,0.096C330.517,250.49,330.201,250.457,329.882,250.441z M330.146,250.189
				c0.174-0.178,0.345-0.364,0.531-0.488C330.492,249.826,330.32,250.012,330.146,250.189z M291.975,272.898L291.975,272.898
				l0.077,0.08L291.975,272.898z M319.137,263.406c0.141-0.197,0.254-0.525,0.428-0.561c0.312-0.065,0.66,0.046,0.994,0.084
				c-0.04,0.193-0.047,0.388-0.022,0.583c-0.333,0.044-0.665,0.115-0.998,0.119C319.405,263.632,319.27,263.485,319.137,263.406z
				 M338.1,236.177c1.351,0.154,2.54-0.436,3.798-0.758c0.922-0.237,1.497,0.379,1.623,1.505c-1.597,0.394-3.181,0.426-4.757-0.05
				c-0.267-0.081-0.45-0.441-0.672-0.671L338.1,236.177z M336.036,236.211c0.308-0.034,0.615-0.022,0.919,0.036
				c-0.112,0.424-0.353,0.579-0.675,0.384C336.158,236.558,336.115,236.355,336.036,236.211c-0.197,0.104-0.407,0.192-0.609,0.29
				C335.629,236.403,335.839,236.315,336.036,236.211z M227.209,221.125c0.233-0.151,0.491-0.229,0.762-0.267
				C227.7,220.896,227.442,220.974,227.209,221.125c-0.233,0.151-0.441,0.377-0.613,0.711c-0.007,1.017-0.014,2.033-0.02,3.05
				c0.007-1.017,0.013-2.033,0.02-3.05C226.768,221.502,226.976,221.277,227.209,221.125z M149.903,234.113
				C149.904,234.113,149.903,234.113,149.903,234.113c-0.155,0.158-0.309,0.315-0.464,0.473
				C149.594,234.428,149.749,234.271,149.903,234.113z M351.348,255.562L351.348,255.562c-1.003,0.024-2.006,0.048-3.009,0.072
				C349.341,255.61,350.345,255.586,351.348,255.562z"/>
			<path style="fill:#DEE4E4;" d="M394.291,256.104c-1.002,0.372-1.926,0.513-2.924,0.059c-1.974-0.896-3.895-0.727-5.867,0.152
				c-0.975,0.434-2.004,0.294-2.389-1.053c-0.325-1.135-0.967-1.715-2.15-1.71c-1.015,0.004-2.03-0.016-3.045-0.026
				c-1.494-0.188-2.823,0.283-4.087,1.019c-0.377-0.307-0.729-0.833-1.136-0.88c-1.152-0.133-2.332-0.148-3.491-0.063
				c-1.193,0.087-2.201,0.703-3.075,1.507c-0.095,0.087-0.127,0.361-0.062,0.478c0.142,0.253,0.368,0.65,0.555,0.647
				c0.475-0.007,0.973-0.141,1.416-0.331c1.895-0.813,3.816-0.935,5.785-0.329c1.655,0.38,1.832,0.54,1.2,1.239
				c-1.009,1.116-0.528,2.113-0.169,3.192c0.48,1.441,1.091,1.804,2.536,1.636c1.224-0.142,1.571-1.09,1.939-2.005
				c0.308-0.763-0.219-1.234-0.748-1.645c-0.39-0.303-0.936-0.473-1.203-0.851c-0.467-0.661-0.14-1.211,0.535-1.567
				c1.207,0.282,2.092-1.105,3.343-0.644c0.367,1.724,0.734,3.447,1.096,5.145c0.335-0.033,0.54,0.007,0.665-0.075
				c0.851-0.555,1.484-1.119,2.504,0.065c0.938,1.089,2.487,0.74,3.781,0.33c0.538-0.17,0.636-0.717,0.349-1.233
				c-0.231-0.416-0.496-0.812-0.938-1.527c2.628-0.005,4.965-0.069,7.298,0.005c2.082,0.066,3.916-0.545,6.044-1.855
				C399.176,255.564,396.707,255.206,394.291,256.104z"/>
			<path style="fill:#DEE4E4;" d="M353.345,237.656c1.113,1.076,1.032,2.245,0.654,3.677c-0.396,1.501,0.526,2.415,2.442,2.998
				c0.601,0.359,0.96,0.872,1.072,1.573c0.152,0.957,0.767,1.422,1.703,1.455c0.815,0.029,1.633,0.006,2.471,0.006
				c-0.02-1.532-1.594-0.82-2.042-1.786c-0.548-1.18-1.436-2.203-2.177-3.293c0.987-0.004,1.975,0.023,2.96-0.018
				c1.542-0.064,1.574-0.115,2.152-2.036c0.127-0.309,0.264-0.615,0.378-0.929c0.215-0.594-0.014-0.92-0.634-0.904
				c-0.463,0.012-0.923,0.105-1.537,0.182c0-0.752,0.015-1.389-0.015-2.024c-0.005-0.102-0.208-0.195-0.534-0.479
				c-0.952,0-2.12,0.02-3.285-0.007c-0.76-0.017-1.189-0.504-1.432-1.179c-0.112-0.312-0.177-0.646-0.321-0.941
				c-0.249-0.51-0.718-0.743-1.219-0.507c-0.427,0.202-1.126,0.681-1.078,0.896C353.151,235.438,352.342,236.686,353.345,237.656z
				 M356.454,238.328c0.44-0.123,0.943-0.202,1.279,0.314c-0.02,0.07-0.044,0.278-0.088,0.282c-0.437,0.041-0.906,0.152-1.306,0.036
				C355.951,238.848,356.004,238.454,356.454,238.328z M356.439,242.288c0.003,0.336,0.002,0.673-0.003,1.01
				c-0.537-0.139-0.871-0.481-1.016-1.013C355.76,242.276,356.1,242.277,356.439,242.288z"/>
			<path style="fill:#DEE4E4;" d="M359.215,233.786c2.016,1.258,4.159,0.549,6.265,0.178c0.736-0.13,1.119-0.749,0.815-1.517
				c-0.375-0.947,0.123-1.58,0.625-2.27c0.357-0.492,0.136-0.913-0.364-1.185c-0.295-0.161-0.599-0.313-0.913-0.432
				c-0.616-0.234-1.551,0.265-1.498,0.842c0.059,0.65,0.312,1.283,0.378,1.934c0.136,1.342-0.488,1.676-2.327,1.294
				c-0.165-0.967,0.803-1.902,0.085-2.887c-0.303-0.063-0.606-0.134-0.911-0.186c-0.325-0.056-0.652-0.096-0.979-0.139
				c-1.462-0.191-2.021,0.246-1.805,1.465C358.755,231.844,358.997,232.794,359.215,233.786z"/>
			<path style="fill:#DEE4E4;" d="M369.442,257.894c-1.898,0.854-3.967-0.131-5.817,0.736c-0.46-1.14-1.749-0.788-2.485-1.401
				c-0.168-0.14-0.143-0.547-0.144-0.831c0-0.075,0.252-0.232,0.363-0.212c0.643,0.116,1.293,0.41,1.908-0.026
				c0.261-0.185,0.486-0.453,0.654-0.729c0.231-0.377-0.248-0.885-0.861-0.868c-1.627,0.044-3.286-0.282-4.844,0.278
				c-0.126,0.857,0.539,1.272,0.745,1.86c0.628,1.79,1.981,2.066,3.592,1.949c-0.136,0.307-0.317,0.603-0.399,0.924
				c-0.119,0.464-0.336,1-0.204,1.406c0.163,0.501,0.808,0.619,1.256,0.393c0.978-0.493,1.84-0.496,2.862-0.014
				c1.249,0.588,2.622,0.448,3.949,0.104c0.717-0.186,1.5-1.178,1.476-1.855C371.459,258.653,370.284,257.515,369.442,257.894z"/>
			<path style="fill:#DEE4E4;" d="M363.595,248.031c-2.822,0.527-3.034,0.782-3.045,3.564c-0.001,0.319,0.138,0.639,0.335,1.488
				c1.337-0.406,2.48-0.67,3.543-1.123c0.34-0.145,0.686-0.809,0.649-1.2c-0.076-0.821-0.36-1.635-0.661-2.413
				C364.343,248.157,363.852,247.983,363.595,248.031z"/>
			<path style="fill:#DEE4E4;" d="M365.221,240.752c0.197,0.208,0.287,0.373,0.423,0.435c0.724,0.327,1.454,0.967,2.256,0.245
				c0.66-0.594,0.985-1.421,0.665-2.256c-0.318-0.829-0.417-1.882-1.484-2.249C366.446,238.236,365.823,239.515,365.221,240.752z"/>
			<path style="fill:#DEE4E4;" d="M371.021,241.121c0.958,0.118,1.613-0.423,1.686-1.542c-0.169-0.257-0.335-0.801-0.692-0.995
				c-0.771-0.419-1.95,0.586-1.954,1.625C370.058,240.8,370.494,241.056,371.021,241.121z"/>
			<path style="fill:#DEE4E4;" d="M346.269,268.07c-0.296-0.097-0.61-0.142-0.916-0.21c-0.319,0.034-0.644,0.038-0.954,0.108
				c-0.488,0.109-0.918,0.344-0.875,0.928c0.039,0.53,0.371,0.822,0.92,0.878c0.871,0.089,1.558-0.192,2.037-0.939
				C346.714,268.471,346.649,268.195,346.269,268.07z"/>
			<path style="fill:#DEE4E4;" d="M300.788,277.458c0.741,1.194,0.813,1.277,1.28,1.106c0.472-0.173,0.936-0.384,1.374-0.631
				c0.772-0.434,0.732-0.84-0.166-1.906C302.865,277.228,301.498,276.776,300.788,277.458z"/>
			<path style="fill:#DEE4E4;" d="M358.927,252.41c0.188-0.388,0.245-0.889,0.191-1.319c-0.021-0.164-0.564-0.433-0.78-0.365
				c-0.434,0.136-0.855,0.417-1.194,0.733c-0.445,0.415-0.066,1.319,0.726,1.546C358.299,253.14,358.718,252.841,358.927,252.41z"/>
			<polygon style="fill:#DEE4E4;" points="303.274,276.02 303.275,276.026 303.276,276.028 303.28,276.02 			"/>
			<path style="fill:#DEE4E4;" d="M301.171,274.741c-0.195,0.198-0.246,0.567-0.289,0.867c-0.012,0.082,0.239,0.28,0.382,0.294
				c0.668,0.064,1.34,0.083,2.011,0.118c-0.048-0.332-0.027-0.696-0.16-0.99C302.661,274.028,301.979,273.922,301.171,274.741z"/>
			<path style="fill:#DEE4E4;" d="M348.309,227.841c0.472,0.117,0.955,0.157,1.288-0.304c0.036-0.05-0.092-0.317-0.154-0.321
				c-0.439-0.03-0.881-0.03-1.32-0.002c-0.063,0.004-0.113,0.215-0.169,0.33C348.071,227.647,348.174,227.808,348.309,227.841z"/>
			<path style="fill:#DEE4E4;" d="M304.844,273.432c0.151-0.153,0.302-0.306,0.453-0.459c-0.127,0.048-0.266,0.081-0.366,0.162
				C304.865,273.19,304.87,273.33,304.844,273.432z"/>
			<path style="fill:#DEE4E4;" d="M305.296,272.973c0.011-0.004,0.021-0.009,0.031-0.014c-0.002-0.004-0.004-0.005-0.006-0.009
				c-0.001,0-0.002,0-0.002,0C305.311,272.958,305.304,272.966,305.296,272.973z"/>
			<path style="fill:#DEE4E4;" d="M315.537,219.806c0.006-0.003,0.01-0.008,0.017-0.011c0-0.001,0-0.001,0-0.002
				c-0.006-0.004-0.01-0.007-0.015-0.011C315.538,219.79,315.537,219.798,315.537,219.806z"/>
			<path style="fill:#DEE4E4;" d="M314.618,221.41c0.034,0.277,0.327,0.523,0.502,0.783c0.097-0.132,0.264-0.256,0.278-0.397
				c0.069-0.661,0.097-1.326,0.138-1.99C314.867,220.132,314.529,220.683,314.618,221.41z"/>
		</g>
		<g>
			<g>
				<path style="fill:#A06C33;" d="M347.131,295.801c-3.786,0.707-7.562,1.456-11.381,1.965c-3.775,0.503-7.556,0.65-11.356,0.367
					c-7.225-0.538-14.378-2.337-21.662-1.912c-3.677,0.215-7.304,0.998-10.566,2.753c-0.237,0.128-0.138,0.543,0.142,0.522
					c3.509-0.264,7.019-0.528,10.528-0.793c3.508-0.264,7.022-0.421,10.528-0.72c0.515-0.044,0.525-0.849,0-0.813
					c-3.514,0.247-7.016,0.636-10.528,0.918c-3.509,0.282-7.019,0.564-10.528,0.846c0.047,0.174,0.094,0.348,0.142,0.522
					c6.164-3.358,13.464-2.923,20.157-1.8c3.686,0.618,7.349,1.364,11.072,1.734c3.703,0.368,7.421,0.219,11.108-0.249
					c4.244-0.539,8.423-1.496,12.572-2.521C347.895,296.489,347.663,295.701,347.131,295.801L347.131,295.801z"/>
			</g>
			<g>
				<path style="fill:#A06C33;" d="M346.398,295.945c-5.574,2.246-12.02,1.225-17.181,4.65c-2.505,1.662-4.593,3.892-6.597,6.112
					c-2.094,2.319-4.042,4.775-5.854,7.319c-2.057,2.887-3.811,5.906-5.531,8.997c-0.182,0.326,0.186,0.715,0.518,0.518
					c2.732-1.619,5.582-3.241,7.28-6.034c1.696-2.79,2.105-6.153,3.783-8.941c0.218-0.363-0.349-0.693-0.567-0.331
					c-1.606,2.666-2.36,5.711-3.903,8.401c-1.601,2.792-4.285,4.613-6.976,6.251c0.173,0.173,0.345,0.345,0.518,0.518
					c1.439-2.66,3.163-5.225,4.918-7.687c1.803-2.531,3.751-4.957,5.83-7.266c1.988-2.209,4.041-4.448,6.416-6.252
					c2.41-1.831,5.1-2.786,8.049-3.352c3.212-0.616,6.543-0.917,9.512-2.389C346.896,296.319,346.696,295.825,346.398,295.945
					L346.398,295.945z"/>
			</g>
			<g>
				<path style="fill:#A06C33;" d="M332.135,298.811c-1.958,1.873-3.927,3.761-6.153,5.318c-2.074,1.451-4.334,2.525-6.765,3.225
					c-4.481,1.291-9.183,1.544-13.674,2.792c-2.46,0.684-4.797,1.707-6.818,3.285c0.182,0.182,0.363,0.363,0.545,0.545
					c4.73-4.737,11.194-7.582,17.871-7.972c1.915-0.112,3.825-0.026,5.713,0.313c0.677,0.121,0.817-0.847,0.127-0.936
					c-6.871-0.888-13.873,0.608-19.707,4.377c-1.641,1.06-3.166,2.293-4.549,3.673c-0.362,0.361,0.165,0.841,0.545,0.545
					c3.773-2.937,8.608-3.7,13.197-4.446c4.69-0.762,9.381-1.624,13.364-4.383c2.462-1.705,4.597-3.821,6.713-5.926
					C332.808,298.956,332.404,298.553,332.135,298.811L332.135,298.811z"/>
			</g>
			<g>
				<path style="fill:#A06C33;" d="M346.899,295.9c-2.06,0.429-3.978,1.671-5.608,2.953c-1.759,1.383-3.306,3.005-4.792,4.671
					c-3.342,3.747-6.793,7.47-9.781,11.51c-1.57,2.123-3.004,4.305-3.939,6.789c-0.105,0.279,0.337,0.395,0.444,0.122
					c0.852-2.16,2.093-4.161,3.522-5.986c1.438-1.837,3.096-3.489,4.636-5.237c1.677-1.904,3.353-3.809,5.032-5.712
					c1.411-1.598,2.843-3.192,4.434-4.615c0.916-0.82,1.888-1.577,2.935-2.223c1.055-0.65,2.166-1.106,3.312-1.564
					C347.527,296.435,347.371,295.802,346.899,295.9L346.899,295.9z"/>
			</g>
		</g>
		<path style="fill:#A06C33;" d="M208.02,285.047c-2.797-2.098-5.863-3.003-9.357-2.334c-1.097,0.21-2.23,0.231-3.347,0.339
			c0.635-0.976,1.42-1.542,2.212-2.098c2.03-1.425,3.621-3.285,4.102-5.691c0.196-0.98-0.45-2.459-1.209-3.21
			c-0.82-0.812-1.715,0.281-2.261,0.973c-1.815,2.298-4.013,4.453-5.186,7.058c-1.549,3.438-4.437,5.095-7.144,7.15
			c3.466-4.875,5.378-10.239,5.465-16.198c0.02-1.359,0.664-1.713,1.826-1.845c5.688-0.648,9.819-5.828,9.202-11.579
			c-0.064-0.596-0.456-1.488-0.891-1.626c-0.48-0.153-1.297,0.274-1.773,0.678c-1.354,1.147-2.608,2.411-3.902,3.629
			c-0.087,0.064-0.174,0.129-0.26,0.193c0.053-0.097,0.107-0.195,0.16-0.293c0.098-0.454,0.141-0.929,0.301-1.36
			c1.093-2.943,0.902-5.93,0.243-8.905c-0.136-0.614-0.716-1.131-1.091-1.692c-0.455,0.331-1.06,0.567-1.34,1.009
			c-1.824,2.883-3.397,5.885-3.849,9.633c-0.762-2.031-1.218-3.944-2.155-5.583c-1.545-2.703-2-5.481-1.789-8.542
			c0.131-1.905-0.309-3.843-0.375-5.771c-0.016-0.473,0.334-1.294,0.679-1.394c6.608-1.916,9.244-7.889,12.977-12.703
			c0.811-1.047,0.194-1.99-1.174-1.951c-1.122,0.032-2.323,0.258-3.334,0.731c-4.074,1.902-7.119,5.003-9.641,8.926
			c-0.506-2.463-0.808-4.74-1.461-6.911c-0.875-2.907-2.188-5.629-4.874-7.375c-1.253-0.814-2.317-0.601-2.568,0.626
			c-0.306,1.5-0.592,3.084-0.435,4.584c0.471,4.486,2.447,8.235,5.963,11.16c0.742,0.617,1.479,1.462,1.777,2.35
			c1.001,2.992,1.149,6.095,0.867,9.413c-2.098-2.502-3.956-4.855-5.959-7.076c-3.657-4.057-7.942-7.374-12.621-10.165
			c-1.228-0.732-1.741-1.609-1.674-3.005c0.085-1.781,0.016-3.569,0.061-5.353c0.111-4.328,0.56-8.525,4.697-11.166
			c0.127-0.081,0.225-0.214,0.325-0.332c2.121-2.5,3.35-5.355,3.298-8.668c-0.022-1.4-0.904-1.914-2.15-1.317
			c-0.406,0.195-0.738,0.554-1.085,0.86c-2.774,2.45-5.211,5.149-6.219,8.61c-1.216-1.607-2.287-3.315-3.671-4.714
			c-0.569-0.575-1.81-0.487-2.745-0.7c-0.16,0.851-0.605,1.765-0.432,2.541c0.799,3.582,2.423,6.643,5.878,8.443
			c0.468,0.244,0.937,1.035,0.925,1.562c-0.075,3.403-0.272,6.804-0.485,10.202c-0.011,0.174-0.715,0.518-0.805,0.441
			c-2.224-1.895-4.778-3.554-6.522-5.83c-3.235-4.222-2.852-9.079-1.295-13.909c2.227-6.908,9.461-14.551,18.088-13.623
			c1.054,0.113,1.809,0.427,2.666,1.053c1.476,1.078,3.084,2.153,4.804,2.681c3.002,0.921,6.123,1.467,9.214,2.073
			c0.681,0.134,1.821,0.114,2.075-0.276c0.382-0.585,0.413-1.645,0.165-2.352c-0.905-2.573-2.895-4.109-5.365-5.111
			c-2.617-1.063-5.298-0.718-7.981-0.436c-0.044,0.013-0.087,0.025-0.131,0.038c0.043-0.013,0.086-0.025,0.128-0.038
			c0.808-0.45,1.622-0.889,2.424-1.35c3.348-1.925,5.439-4.795,6.005-8.599c0.394-2.646-0.88-3.527-3.255-2.348
			c-1.726,0.857-3.462,1.786-4.968,2.97c-3.013,2.367-5.378,5.199-4.9,9.419c0.117,1.032-0.513,0.922-1.14,0.911
			c-6.729-0.121-11.823,2.935-15.81,8.138c-0.716,0.934-1.416,1.879-2.122,2.82c0.032-0.355,0.021-0.726,0.144-1.045
			c1.944-5.033,3.695-10.169,7.91-13.928c3.221-2.872,4.105-6.802,4.532-10.838c0.079-0.749-0.698-1.589-1.08-2.386
			c-0.629,0.383-1.372,0.656-1.867,1.168c-3.156,3.266-5.501,7.054-7.053,11.445c-0.411-0.867-0.758-1.642-1.141-2.4
			c-1.159-2.291-2.87-4.046-5.263-5.004c-2.219-0.888-3.693,0.07-3.157,2.192c0.655,2.589,1.559,5.168,2.757,7.549
			c0.942,1.874,2.677,3.343,4.868,3.61c1.523,0.186,1.376,0.604,0.784,1.621c-0.542,0.93-1.086,1.897-1.395,2.919
			c-0.731,2.415-1.478,4.843-1.921,7.319c-0.355,1.989-0.274,4.056-0.387,6.089c-1.037-0.993-1.519-2.051-2.169-2.993
			c-2.676-3.88-5.297-4.319-8.521-3.653c-1.78,0.367-2.035,1.142-0.98,2.609c2.637,3.665,5.752,6.716,10.481,7.427
			c0.711,0.107,1.001,0.219,1.099,1.055c0.434,3.699,2.14,6.815,5.067,9.073c3.118,2.405,6.398,4.608,9.679,6.791
			c3.343,2.225,6.53,4.613,9.213,7.795c-1.484,0.05-2.936-0.001-4.32-0.33c-3.818-0.909-7.571-2.143-11.424-2.838
			c-2.408-0.434-3.611-1.558-4.362-3.772c-0.763-2.249-1.719-4.469-2.887-6.534c-1.346-2.379-3.592-3.809-6.209-4.555
			c-1.713-0.488-2.532,0.283-2.264,2.02c0.07,0.45,0.236,0.888,0.386,1.322c1.42,4.117,3.875,7.515,7.49,10.444
			c-0.995,0.204-1.719,0.351-2.442,0.501c-2.861,0.594-5.553,1.55-7.217,4.147c-0.435,0.68-0.794,1.892-0.473,2.442
			c0.347,0.594,1.535,0.98,2.351,0.971c4.377-0.05,8.112-1.802,11.187-4.844c1.076-1.065,2.078-1.365,3.495-0.975
			c3.707,1.021,7.423,2.012,11.162,2.906c1.927,0.461,3.863,1.074,5.919,0.319c0.461-0.169,1.443,0.217,1.76,0.655
			c2.529,3.502,5.305,6.891,7.336,10.673c3.727,6.942,5.273,14.435,4.258,22.372c-0.349,2.73-1.996,7.271-3.424,8.812
			c-0.182-1.113-0.354-2.329-0.585-3.534c-0.35-1.827-0.378-3.489,0.619-5.271c1.13-2.021,1.562-4.374,1.238-6.746
			c-0.289-2.117-0.965-4.069-2.892-5.304c-1.757-1.126-2.969-0.604-2.842,1.418c0.154,2.445,0.606,4.881,1.068,7.294
			c0.28,1.462,0.822,2.874,1.247,4.309c-0.157,0.061-0.313,0.123-0.47,0.184c-0.383-0.714-0.794-1.414-1.144-2.143
			c-1.886-3.928-4.842-4.587-8.609-4.575c-0.917,0.003-1.778,0.36-1.048,1.596c2.227,3.773,4.857,6.995,9.67,7.461
			c0.545,0.053,1.322,0.576,1.504,1.063c1.649,4.416,0.657,7.857-3.015,10.801c-0.603,0.483-1.244,0.937-1.923,1.302
			c-11.155,6-21.963,5.177-32.356-1.831c-3.655-2.464-6.512-5.681-8.108-9.904c-0.797-2.107-0.859-4.188,0.556-5.94
			c1.883-2.333,3.978-4.502,6.086-6.64c0.379-0.384,1.261-0.382,1.908-0.371c2.944,0.045,5.894,0.315,8.829,0.199
			c2.959-0.117,5.688-1.061,7.102-3.985c0.432-0.893,1.253-2.155,0.147-2.968c-0.642-0.472-1.837-0.415-2.734-0.278
			c-3.206,0.49-6.392,1.116-9.477,1.671c0.551-1.807,1.101-3.397,1.485-5.026c0.096-0.409-0.222-1.129-0.575-1.36
			c-0.261-0.17-1.001,0.094-1.336,0.385c-2.996,2.601-5.935,5.251-6.181,9.638c-0.024,0.422-0.296,0.904-0.596,1.225
			c-2.148,2.299-4.332,4.564-6.561,6.898c0.342-4.023,0.907-7.987,2.807-11.605c1.329-2.532,2.809-4.992,5.245-6.676
			c4.533-3.135,9.615-4.06,15.005-3.669c0.351,0.026,0.793,0.39,0.988,0.718c1.567,2.644,4.119,3.886,6.849,4.845
			c2.614,0.918,5.251,1.773,7.901,2.581c0.598,0.182,1.29,0.058,1.938,0.075c-0.069-0.725,0.067-1.555-0.242-2.157
			c-1.764-3.442-4.489-5.853-8.146-7.176c-0.286-0.104-0.59-0.162-0.873-0.273c-0.202-0.079-0.383-0.211-0.257-0.139
			c1.722-1.076,3.508-2.114,5.187-3.303c0.379-0.268,0.593-1.11,0.487-1.602c-0.07-0.325-0.84-0.683-1.311-0.704
			c-1.78-0.081-3.622-0.31-5.337,0.035c-2.649,0.533-5.251,1.406-6.317,4.4c-0.125,0.35-0.751,0.677-1.182,0.735
			c-1.379,0.184-2.778,0.216-4.166,0.342c-5.111,0.465-9.777,2.006-13.553,5.665c0.098-0.595,0.189-1.19,0.295-1.784
			c0.611-3.428,0.157-6.627-2.107-9.396c-0.89-1.088-1.635-1.051-2.01,0.12c-1.475,4.603-1.694,9.278,0.089,13.809
			c0.491,1.248,0.403,2.012-0.086,3.116c-2.126,4.798-3.305,9.736-2.41,15.071c0.649,3.868,2.187,7.262,4.527,10.394
			c-2.251-1.696-4.408-3.442-6.444-5.32c-1.236-1.141-2.971-2.368-3.212-3.774c-0.215-1.254,1.269-2.833,2.081-4.224
			c2.268-3.882,2.378-7.738-0.111-11.546c-0.608-0.93-1.253-2.396-2.549-1.834c-0.678,0.293-1.061,1.766-1.18,2.754
			c-0.375,3.096-0.561,6.215-0.836,9.515c-1.63-3.546-4.406-5.14-8.2-4.86c-0.642,0.047-1.729,0.264-1.798,0.582
			c-0.136,0.62,0.14,1.474,0.524,2.043c2.479,3.668,6.02,6.167,9.598,8.644c1.978,1.369,3.784,2.986,5.668,4.491
			c-1.752,0.226-3.212,0.051-4.662,0.114c-2.956,0.129-5.596,1.14-7.657,3.33c-0.354,0.376-0.563,1.127-0.454,1.619
			c0.074,0.333,0.794,0.638,1.272,0.745c0.975,0.218,1.979,0.359,2.977,0.416c3.089,0.176,6.376,0.629,8.975-1.342
			c2.193-1.663,3.666-1.469,5.714,0.151c1.77,1.4,4.113,2.051,6,3.332c5.823,3.948,12.261,5.968,19.218,5.773
			c8.191-0.23,15.36-3.639,22.019-8.184c1.208-0.824,2.269-1.865,3.379-2.828c0.83-0.72,1.425-0.959,2.48-0.041
			c1.174,1.021,2.697,1.757,4.187,2.273c3.754,1.301,7.27-0.645,10.892-1.12C208.998,286.536,208.884,285.695,208.02,285.047z
			 M196.047,262.46c1.333-1.473,2.865-2.766,4.583-4.397c0.319,4.525-3.459,9.302-7.587,9.947c-0.264,0.041-0.56-0.115-0.841-0.179
			c0.106-0.277,0.157-0.596,0.329-0.825C193.68,265.472,194.765,263.876,196.047,262.46z M194.758,250.571
			c1.148,5.149-0.481,9.129-2.973,13.255C190.791,258.899,192.223,254.873,194.758,250.571z M177.209,220.577
			c0.027-0.392,0.296-0.844,0.596-1.102c0.113-0.098,0.693,0.207,0.956,0.444c2.601,2.343,3.631,5.478,4.263,8.77
			c0.311,1.623,0.409,3.286,0.656,5.383C178.822,230.456,176.835,226.061,177.209,220.577z M164.24,210.542
			c0.842-4.105,3.195-7.176,6.671-9.772c0.258,2.43-0.508,4.322-1.768,5.979c-1.161,1.527-2.518,2.907-3.822,4.321
			c-0.235,0.255-0.63,0.363-0.952,0.538C164.321,211.252,164.172,210.875,164.24,210.542z M160.522,211.458
			c-1.785-1.809-2.825-3.984-2.971-6.547c0.891,0.76,1.951,1.398,2.611,2.323c0.742,1.04,1.144,2.334,1.625,3.544
			c0.227,0.572,0.293,1.208,0.432,1.814C161.648,212.219,160.99,211.932,160.522,211.458z M185.249,192.863
			c1.311,0.723,2.474,1.755,3.591,2.77c0.391,0.355,0.444,1.081,0.652,1.638c-0.509,0.035-1.018,0.07-1.739,0.12
			c-3.646-0.693-7.568-1.078-10.959-3.296c-0.383-0.251-0.822-0.474-1.082-0.824c-0.107-0.144,0.217-0.866,0.303-0.858
			C179.093,192.695,182.292,191.234,185.249,192.863z M175.926,185.479c1.916-2.606,4.667-4.2,7.483-5.658
			c0.306-0.158,0.713-0.12,1.073-0.172c0.052,0.417,0.224,0.861,0.137,1.246c-0.598,2.635-1.853,4.903-4.126,6.441
			c-1.525,1.032-3.214,1.82-4.746,2.842c-1.428,0.953-1.516,0.253-1.669-1.088C174.684,187.878,175.135,186.554,175.926,185.479z
			 M157.912,188.744c0.779-2.077,1.451-4.217,2.466-6.178c0.915-1.766,2.205-3.341,3.365-4.975c0.205-0.289,0.583-0.455,0.882-0.677
			c0.123,0.395,0.246,0.79,0.345,1.106c-0.477,2.97-1.352,5.64-3.308,7.856c-0.97,1.099-1.946,2.193-2.935,3.275
			c-0.141,0.154-0.371,0.227-0.559,0.337C158.075,189.237,157.841,188.933,157.912,188.744z M155.386,191.81
			c-1.272-0.446-2.687-0.89-3.635-1.771c-2.245-2.087-2.702-5.093-3.49-7.877c-0.16-1.111,0.53-1.387,1.207-0.931
			c1.321,0.889,2.823,1.791,3.644,3.075c1.27,1.988,2.023,4.304,3.013,6.473C156.502,191.602,156.178,192.087,155.386,191.81z
			 M153.707,203.042c-0.034,0.128-0.069,0.256-0.103,0.385c-0.025-0.052-0.086-0.125-0.07-0.151
			C153.584,203.193,153.647,203.118,153.707,203.042z M149.387,212.984c-2.574-0.94-4.839-2.358-6.651-4.444
			c-0.253-0.291-0.503-0.588-0.709-0.912c-0.343-0.538-0.648-1.1-0.969-1.652c0.649-0.221,1.298-0.442,2.369-0.807
			c1.222,0.833,2.779,1.574,3.89,2.741c1.145,1.202,1.864,2.812,2.745,4.259c0.134,0.22,0.138,0.521,0.202,0.784
			C149.969,212.968,149.641,213.077,149.387,212.984z M144.486,241.539c-0.44,0.004-0.881-0.108-1.322-0.166
			c0.209-0.479,0.286-1.18,0.651-1.398c1.691-1.007,3.384-2.109,5.227-2.731c1.623-0.547,3.445-0.503,5.179-0.72
			c0.031,0.19,0.062,0.38,0.093,0.57C151.384,239.314,148.436,241.505,144.486,241.539z M151.697,232.964
			c-2.917-2.512-4.919-5.676-6.212-9.289c-0.11-0.307-0.015-0.687-0.015-1.63c1.765,1.147,3.057,1.83,4.162,2.739
			c2.177,1.792,2.993,4.422,3.927,6.947c0.334,0.904,0.548,1.852,0.817,2.78C153.476,234.003,152.465,233.625,151.697,232.964z
			 M186.076,233.91c2.113-3.675,4.853-6.737,8.697-8.673c0.858-0.432,1.769-0.76,2.655-1.136c-2.692,4.144-5.047,8.496-9.401,11.13
			c-0.131,0.079-0.265,0.189-0.408,0.21c-0.797,0.116-1.597,0.208-2.396,0.309C185.505,235.134,185.74,234.493,186.076,233.91z
			 M180.575,275.955c-2.768-0.844-4.797-2.615-6.179-5.127c-0.052-0.095,0.378-0.653,0.611-0.674
			c1.799-0.158,3.355,0.488,4.45,1.884c0.787,1.002,1.311,2.21,2.078,3.545C181.089,275.764,180.784,276.018,180.575,275.955z
			 M153.69,261.806c2.165-0.489,4.364-0.827,6.551-1.216c0.36-0.064,0.735-0.047,1.103-0.068c-0.069,0.423-0.018,0.921-0.226,1.258
			c-1.341,2.17-3.468,2.962-5.872,3.032c-2.846,0.083-5.696,0.02-8.581,0.02C148.521,262.582,151.194,262.369,153.69,261.806z
			 M149.617,256.65c0.18,0.125,0.359,0.251,0.539,0.376c-0.661,2.442-1.827,4.509-4.199,5.681c-0.163-0.118-0.326-0.236-0.488-0.354
			C146.851,260.452,148.234,258.551,149.617,256.65z M162.766,247.17c1.89-1.949,4.37-2.397,7.226-2.717
			c0.279,0.118,0.8,0.338,1.322,0.558c-0.374,0.37-0.687,0.94-1.133,1.077c-2.33,0.716-4.692,1.329-7.049,1.955
			c-0.202,0.054-0.449-0.063-0.675-0.101C162.557,247.681,162.588,247.354,162.766,247.17z M164.582,250.13
			c4.453,0.55,8.652,2.244,11.077,6.935c-4.296-1.357-8.453-2.003-11.865-4.585c-0.71-0.537-1.221-1.337-1.823-2.016
			C162.843,250.342,163.739,250.025,164.582,250.13z M139.05,244.68c2.324,3.34,2.343,6.842,0.186,11.945
			C138.056,252.558,138.119,248.764,139.05,244.68z M124.979,273.965c-1.802-1.565-3.491-3.262-5.194-4.937
			c-0.253-0.249-0.329-0.677-0.487-1.022c0.343-0.089,0.685-0.178,0.887-0.231c3.126,0.387,5.366,1.776,6.519,4.634
			c0.449,1.114,0.828,2.256,1.238,3.385C126.947,275.193,125.844,274.716,124.979,273.965z M130.124,262.089
			c0.074-0.315,0.228-0.611,0.345-0.915c0.234,0.19,0.542,0.335,0.69,0.577c1.554,2.553,2.262,5.233,0.97,8.114
			c-0.593,1.323-1.306,2.592-2.142,4.235C128.839,269.802,129.22,265.938,130.124,262.089z M134.556,285.501
			c-2.358,1.79-5.111,1.858-7.896,1.651c-1.231,0-2.463,0.008-3.694-0.008c-0.21-0.003-0.418-0.107-0.628-0.164
			c0.15-0.216,0.266-0.47,0.455-0.642c1.66-1.507,3.625-2.278,5.86-2.241c1.912,0.031,3.824,0.159,5.734,0.274
			c0.295,0.018,0.581,0.191,0.872,0.293C135.027,284.946,134.839,285.286,134.556,285.501z M184.021,272.174
			c-0.418-2.473-0.854-4.942-1.233-7.421c-0.061-0.401,0.137-0.842,0.215-1.265c0.414,0.287,0.948,0.489,1.221,0.875
			c1.77,2.501,1.423,5.127,0.574,7.762C184.539,272.142,184.28,272.158,184.021,272.174z M199.48,273.714
			c0.058-0.06,0.786,0.357,0.768,0.411c-0.368,1.139-0.515,2.53-1.276,3.324c-1.5,1.565-3.336,2.81-5.039,4.181
			C194.719,278.254,197.229,276.069,199.48,273.714z M193.651,281.836c0.057-0.026,0.114-0.052,0.171-0.079
			c-0.015,0.027-0.028,0.057-0.049,0.077C193.75,281.854,193.692,281.836,193.651,281.836z M194.247,284.611
			c3.87,0.136,7.676-1.739,11.403,0.628C201.191,287.418,196.896,287.208,194.247,284.611z"/>
		<text transform="matrix(1 0 0 1 153.2526 268.8252)" style="fill:#231F20; font-family:'CACChampagne'; font-size:114.5095px;">Shara</text>
		
			<text transform="matrix(1 0 0 1 219.6878 288.2649)" style="fill:#231F20; font-family:'AbhayaLibre-Regular'; font-size:22.4946px;">Fashion Store</text>
	</g>
</g>
</svg>
